 <svg
    xmlns="http://www.w3.org/2000/svg"
    version="1.1"
    xmlns:xlink="http://www.w3.org/1999/xlink"
    xmlns:svgjs="http://svgjs.com/svgjs"
    width="512"
    height="512"
    x="0"
    y="0"
    viewBox="0 0 682.667 682.667"
    style="enable-background: new 0 0 512 512"
    xml:space="preserve"
    class=""
  >
    <g>
      <defs>
        <clipPath id="a" clipPathUnits="userSpaceOnUse">
          <path
            d="M0 512h512V0H0Z"
            fill="#000000"
            data-original="#000000"
          ></path>
        </clipPath>
      </defs>
      <g clip-path="url(#a)" transform="matrix(1.33333 0 0 -1.33333 0 682.667)">
        <path
          d="M0 0c0-22.347-18.116-40.463-40.464-40.463S-80.928-22.347-80.928 0s18.116 40.463 40.464 40.463S0 22.347 0 0Z"
          style="
            stroke-width: 15;
            stroke-linecap: round;
            stroke-linejoin: round;
            stroke-miterlimit: 10;
            stroke-dasharray: none;
            stroke-opacity: 1;
          "
          transform="translate(296.464 47.965)"
          fill="none"
          stroke="#FFF"
          stroke-width="15"
          stroke-linecap="round"
          stroke-linejoin="round"
          stroke-miterlimit="10"
          stroke-dasharray="none"
          stroke-opacity=""
          data-original="#000000"
          class=""
        ></path>
        <path
          d="M0 0c0-22.347-18.116-40.463-40.464-40.463-22.347 0-40.463 18.116-40.463 40.463s18.116 40.463 40.463 40.463C-18.116 40.463 0 22.347 0 0Z"
          style="
            stroke-width: 15;
            stroke-linecap: round;
            stroke-linejoin: round;
            stroke-miterlimit: 10;
            stroke-dasharray: none;
            stroke-opacity: 1;
          "
          transform="translate(504.5 134.86)"
          fill="none"
          stroke="#FFF"
          stroke-width="15"
          stroke-linecap="round"
          stroke-linejoin="round"
          stroke-miterlimit="10"
          stroke-dasharray="none"
          stroke-opacity=""
          data-original="#000000"
          class=""
        ></path>
        <path
          d="M0 0c0-22.347-18.116-40.463-40.463-40.463-22.348 0-40.464 18.116-40.464 40.463s18.116 40.463 40.464 40.463C-18.116 40.463 0 22.347 0 0Z"
          style="
            stroke-width: 15;
            stroke-linecap: round;
            stroke-linejoin: round;
            stroke-miterlimit: 10;
            stroke-dasharray: none;
            stroke-opacity: 1;
          "
          transform="translate(88.427 134.86)"
          fill="none"
          stroke="#FFF"
          stroke-width="15"
          stroke-linecap="round"
          stroke-linejoin="round"
          stroke-miterlimit="10"
          stroke-dasharray="none"
          stroke-opacity=""
          data-original="#000000"
          class=""
        ></path>
        <path
          d="M0 0c0-22.347-18.116-40.463-40.464-40.463-22.347 0-40.463 18.116-40.463 40.463s18.116 40.463 40.463 40.463C-18.116 40.463 0 22.347 0 0Z"
          style="
            stroke-width: 15;
            stroke-linecap: round;
            stroke-linejoin: round;
            stroke-miterlimit: 10;
            stroke-dasharray: none;
            stroke-opacity: 1;
          "
          transform="translate(177.056 68.409)"
          fill="none"
          stroke="#FFF"
          stroke-width="15"
          stroke-linecap="round"
          stroke-linejoin="round"
          stroke-miterlimit="10"
          stroke-dasharray="none"
          stroke-opacity=""
          data-original="#000000"
          class=""
        ></path>
        <path
          d="M0 0v91.45"
          style="
            stroke-width: 15;
            stroke-linecap: round;
            stroke-linejoin: round;
            stroke-miterlimit: 10;
            stroke-dasharray: none;
            stroke-opacity: 1;
          "
          transform="translate(241 85.548)"
          fill="none"
          stroke="#FFF"
          stroke-width="15"
          stroke-linecap="round"
          stroke-linejoin="round"
          stroke-miterlimit="10"
          stroke-dasharray="none"
          stroke-opacity=""
          data-original="#000000"
          class=""
        ></path>
        <path
          d="M0 0v91.46"
          style="
            stroke-width: 15;
            stroke-linecap: round;
            stroke-linejoin: round;
            stroke-miterlimit: 10;
            stroke-dasharray: none;
            stroke-opacity: 1;
          "
          transform="translate(271 85.548)"
          fill="none"
          stroke="#FFF"
          stroke-width="15"
          stroke-linecap="round"
          stroke-linejoin="round"
          stroke-miterlimit="10"
          stroke-dasharray="none"
          stroke-opacity=""
          data-original="#000000"
          class=""
        ></path>
        <path
          d="M0 0v-46.411c0-3.98 1.58-7.8 4.4-10.61l30.78-30.78"
          style="
            stroke-width: 15;
            stroke-linecap: butt;
            stroke-linejoin: round;
            stroke-miterlimit: 10;
            stroke-dasharray: none;
            stroke-opacity: 1;
          "
          transform="translate(391.67 238.638)"
          fill="none"
          stroke="#FFF"
          stroke-width="15"
          stroke-linecap="butt"
          stroke-linejoin="round"
          stroke-miterlimit="10"
          stroke-dasharray="none"
          stroke-opacity=""
          data-original="#000000"
          class=""
        ></path>
        <path
          d="M0 0v-41.701l26.39-26.39"
          style="
            stroke-width: 15;
            stroke-linecap: butt;
            stroke-linejoin: round;
            stroke-miterlimit: 10;
            stroke-dasharray: none;
            stroke-opacity: 1;
          "
          transform="translate(421.67 240.138)"
          fill="none"
          stroke="#FFF"
          stroke-width="15"
          stroke-linecap="butt"
          stroke-linejoin="round"
          stroke-miterlimit="10"
          stroke-dasharray="none"
          stroke-opacity=""
          data-original="#000000"
          class=""
        ></path>
        <path
          d="M0 0v-41.701l-26.39-26.39"
          style="
            stroke-width: 15;
            stroke-linecap: round;
            stroke-linejoin: round;
            stroke-miterlimit: 10;
            stroke-dasharray: none;
            stroke-opacity: 1;
          "
          transform="translate(90.33 240.138)"
          fill="none"
          stroke="#FFF"
          stroke-width="15"
          stroke-linecap="round"
          stroke-linejoin="round"
          stroke-miterlimit="10"
          stroke-dasharray="none"
          stroke-opacity=""
          data-original="#000000"
          class=""
        ></path>
        <path
          d="M0 0v-46.411c0-3.98-1.58-7.8-4.4-10.61l-30.78-30.78"
          style="
            stroke-width: 15;
            stroke-linecap: round;
            stroke-linejoin: round;
            stroke-miterlimit: 10;
            stroke-dasharray: none;
            stroke-opacity: 1;
          "
          transform="translate(120.33 238.638)"
          fill="none"
          stroke="#FFF"
          stroke-width="15"
          stroke-linecap="round"
          stroke-linejoin="round"
          stroke-miterlimit="10"
          stroke-dasharray="none"
          stroke-opacity=""
          data-original="#000000"
          class=""
        ></path>
        <path
          d="M0 0v-38.13l-26.4-26.4"
          style="
            stroke-width: 15;
            stroke-linecap: round;
            stroke-linejoin: round;
            stroke-miterlimit: 10;
            stroke-dasharray: none;
            stroke-opacity: 1;
          "
          transform="translate(178.96 170.118)"
          fill="none"
          stroke="#FFF"
          stroke-width="15"
          stroke-linecap="round"
          stroke-linejoin="round"
          stroke-miterlimit="10"
          stroke-dasharray="none"
          stroke-opacity=""
          data-original="#000000"
          class=""
        ></path>
        <path
          d="M0 0v-39.1c0-3.98-1.58-7.8-4.4-10.61l-30.78-30.78"
          style="
            stroke-width: 15;
            stroke-linecap: round;
            stroke-linejoin: round;
            stroke-miterlimit: 10;
            stroke-dasharray: none;
            stroke-opacity: 1;
          "
          transform="translate(208.96 164.878)"
          fill="none"
          stroke="#FFF"
          stroke-width="15"
          stroke-linecap="round"
          stroke-linejoin="round"
          stroke-miterlimit="10"
          stroke-dasharray="none"
          stroke-opacity=""
          data-original="#000000"
          class=""
        ></path>
        <path
          d="M0 0v-38.13l26.4-26.4"
          style="
            stroke-width: 15;
            stroke-linecap: round;
            stroke-linejoin: round;
            stroke-miterlimit: 10;
            stroke-dasharray: none;
            stroke-opacity: 1;
          "
          transform="translate(333.04 170.118)"
          fill="none"
          stroke="#FFF"
          stroke-width="15"
          stroke-linecap="round"
          stroke-linejoin="round"
          stroke-miterlimit="10"
          stroke-dasharray="none"
          stroke-opacity=""
          data-original="#000000"
          class=""
        ></path>
        <path
          d="M0 0v-39.1c0-3.98 1.58-7.8 4.4-10.61l30.78-30.78"
          style="
            stroke-width: 15;
            stroke-linecap: round;
            stroke-linejoin: round;
            stroke-miterlimit: 10;
            stroke-dasharray: none;
            stroke-opacity: 1;
          "
          transform="translate(303.04 164.878)"
          fill="none"
          stroke="#FFF"
          stroke-width="15"
          stroke-linecap="round"
          stroke-linejoin="round"
          stroke-miterlimit="10"
          stroke-dasharray="none"
          stroke-opacity=""
          data-original="#000000"
          class=""
        ></path>
        <path
          d="M0 0a40.263 40.263 0 0 0 12.01-28.76c0-22.35-18.111-40.46-40.46-40.46-22.351 0-40.47 18.11-40.47 40.46S-50.801 11.7-28.45 11.7c.46 0 .92-.01 1.38-.02"
          style="
            stroke-width: 15;
            stroke-linecap: round;
            stroke-linejoin: round;
            stroke-miterlimit: 10;
            stroke-dasharray: none;
            stroke-opacity: 1;
          "
          transform="translate(403.86 97.17)"
          fill="none"
          stroke="#FFF"
          stroke-width="15"
          stroke-linecap="round"
          stroke-linejoin="round"
          stroke-miterlimit="10"
          stroke-dasharray="none"
          stroke-opacity=""
          data-original="#000000"
          class=""
        ></path>
        <path
          d="M0 0c9.771 8.59 22.3 14.11 36.09 15.06v4.51c0 16.9 6.84 32.2 17.91 43.27s26.37 17.92 43.28 17.92c13.61 0 26.17-4.45 36.32-11.96 6.15-4.53 11.4-10.2 15.49-16.67 4.09 6.47 9.33 12.14 15.48 16.67 2.01 1.49 4.11 2.85 6.29 4.09 8.85 5.02 19.11 7.87 30.02 7.87 33.8 0 61.19-27.39 61.19-61.19v-4.51c15.91-1.1 30.14-8.27 40.39-19.2 10.26-10.95 16.53-25.66 16.53-41.82 0-.44 0-.85-.03-1.27a60.678 60.678 0 0 0-2.85-17.31 60.99 60.99 0 0 0 25.8-13.66c2.66-2.35 5.12-4.95 7.34-7.76 8.25-10.43 13.19-23.61 13.19-37.95 0-33.8-27.41-61.19-61.19-61.19h-39.18v-12.76c0-16.91-6.84-32.21-17.91-43.28-11.09-11.07-26.389-17.91-43.28-17.91-21.83 0-40.97 11.43-51.79 28.63a61.602 61.602 0 0 0-21.79-20.77c-8.87-5.01-19.11-7.86-30.02-7.86-33.8 0-61.19 27.39-61.19 61.19v12.76H-3.09c-16.91 0-32.2 6.84-43.28 17.91-11.069 11.08-17.91 26.37-17.91 43.28 0 18.2 7.93 34.52 20.53 45.71a60.99 60.99 0 0 0 25.8 13.66 60.748 60.748 0 0 0-2.85 17.31c-.03.42-.03.83-.03 1.27 0 7.68 1.42 15.03 4 21.81"
          style="
            stroke-width: 15;
            stroke-linecap: round;
            stroke-linejoin: round;
            stroke-miterlimit: 10;
            stroke-dasharray: none;
            stroke-opacity: 1;
          "
          transform="translate(106.92 423.74)"
          fill="none"
          stroke="#FFF"
          stroke-width="15"
          stroke-linecap="round"
          stroke-linejoin="round"
          stroke-miterlimit="10"
          stroke-dasharray="none"
          stroke-opacity=""
          data-original="#000000"
          class=""
        ></path>
        <path
          d="M0 0v-162.27"
          style="
            stroke-width: 15;
            stroke-linecap: round;
            stroke-linejoin: round;
            stroke-miterlimit: 10;
            stroke-dasharray: none;
            stroke-opacity: 1;
          "
          transform="translate(256.008 475.868)"
          fill="none"
          stroke="#FFF"
          stroke-width="15"
          stroke-linecap="round"
          stroke-linejoin="round"
          stroke-miterlimit="10"
          stroke-dasharray="none"
          stroke-opacity=""
          data-original="#000000"
          class=""
        ></path>
        <path
          d="M0 0h-54.706"
          style="
            stroke-width: 15;
            stroke-linecap: round;
            stroke-linejoin: round;
            stroke-miterlimit: 10;
            stroke-dasharray: none;
            stroke-opacity: 1;
          "
          transform="translate(423.033 359.197)"
          fill="none"
          stroke="#FFF"
          stroke-width="15"
          stroke-linecap="round"
          stroke-linejoin="round"
          stroke-miterlimit="10"
          stroke-dasharray="none"
          stroke-opacity=""
          data-original="#000000"
          class=""
        ></path>
        <path
          d="M0 0c-21.609 0-39.128 17.518-39.128 39.127"
          style="
            stroke-width: 15;
            stroke-linecap: round;
            stroke-linejoin: round;
            stroke-miterlimit: 10;
            stroke-dasharray: none;
            stroke-opacity: 1;
          "
          transform="translate(393.33 359.197)"
          fill="none"
          stroke="#FFF"
          stroke-width="15"
          stroke-linecap="round"
          stroke-linejoin="round"
          stroke-miterlimit="10"
          stroke-dasharray="none"
          stroke-opacity=""
          data-original="#000000"
          class=""
        ></path>
        <path
          d="M0 0c0 21.609 17.518 39.127 39.127 39.127"
          style="
            stroke-width: 15;
            stroke-linecap: round;
            stroke-linejoin: round;
            stroke-miterlimit: 10;
            stroke-dasharray: none;
            stroke-opacity: 1;
          "
          transform="translate(329.2 320.07)"
          fill="none"
          stroke="#FFF"
          stroke-width="15"
          stroke-linecap="round"
          stroke-linejoin="round"
          stroke-miterlimit="10"
          stroke-dasharray="none"
          stroke-opacity=""
          data-original="#000000"
          class=""
        ></path>
        <path
          d="M0 0c0 21.609 17.518 39.127 39.127 39.127h20.504"
          style="
            stroke-width: 15;
            stroke-linecap: round;
            stroke-linejoin: round;
            stroke-miterlimit: 10;
            stroke-dasharray: none;
            stroke-opacity: 1;
          "
          transform="translate(309.363 199.512)"
          fill="none"
          stroke="#FFF"
          stroke-width="15"
          stroke-linecap="round"
          stroke-linejoin="round"
          stroke-miterlimit="10"
          stroke-dasharray="none"
          stroke-opacity=""
          data-original="#000000"
          class=""
        ></path>
        <path
          d="M0 0c0 21.609-17.518 39.127-39.127 39.127h-20.504"
          style="
            stroke-width: 15;
            stroke-linecap: round;
            stroke-linejoin: round;
            stroke-miterlimit: 10;
            stroke-dasharray: none;
            stroke-opacity: 1;
          "
          transform="translate(202.637 199.512)"
          fill="none"
          stroke="#FFF"
          stroke-width="15"
          stroke-linecap="round"
          stroke-linejoin="round"
          stroke-miterlimit="10"
          stroke-dasharray="none"
          stroke-opacity=""
          data-original="#000000"
          class=""
        ></path>
        <path
          d="M0 0h54.705"
          style="
            stroke-width: 15;
            stroke-linecap: round;
            stroke-linejoin: round;
            stroke-miterlimit: 10;
            stroke-dasharray: none;
            stroke-opacity: 1;
          "
          transform="translate(88.968 359.197)"
          fill="none"
          stroke="#FFF"
          stroke-width="15"
          stroke-linecap="round"
          stroke-linejoin="round"
          stroke-miterlimit="10"
          stroke-dasharray="none"
          stroke-opacity=""
          data-original="#000000"
          class=""
        ></path>
        <path
          d="M0 0c21.609 0 39.127 17.518 39.127 39.127"
          style="
            stroke-width: 15;
            stroke-linecap: round;
            stroke-linejoin: round;
            stroke-miterlimit: 10;
            stroke-dasharray: none;
            stroke-opacity: 1;
          "
          transform="translate(118.672 359.197)"
          fill="none"
          stroke="#FFF"
          stroke-width="15"
          stroke-linecap="round"
          stroke-linejoin="round"
          stroke-miterlimit="10"
          stroke-dasharray="none"
          stroke-opacity=""
          data-original="#000000"
          class=""
        ></path>
        <path
          d="M0 0c0 21.609-17.518 39.127-39.127 39.127"
          style="
            stroke-width: 15;
            stroke-linecap: round;
            stroke-linejoin: round;
            stroke-miterlimit: 10;
            stroke-dasharray: none;
            stroke-opacity: 1;
          "
          transform="translate(182.8 320.07)"
          fill="none"
          stroke="#FFF"
          stroke-width="15"
          stroke-linecap="round"
          stroke-linejoin="round"
          stroke-miterlimit="10"
          stroke-dasharray="none"
          stroke-opacity=""
          data-original="#000000"
          class=""
        ></path>
        <path
          d="M0 0c-21.609 0-39.127 17.518-39.127 39.127C-39.127 17.518-56.645 0-78.254 0"
          style="
            stroke-width: 15;
            stroke-linecap: round;
            stroke-linejoin: round;
            stroke-miterlimit: 10;
            stroke-dasharray: none;
            stroke-opacity: 1;
          "
          transform="translate(295.135 274.471)"
          fill="none"
          stroke="#FFF"
          stroke-width="15"
          stroke-linecap="round"
          stroke-linejoin="round"
          stroke-miterlimit="10"
          stroke-dasharray="none"
          stroke-opacity=""
          data-original="#000000"
          class=""
        ></path>
        <path
          d="M0 0v28.126"
          style="
            stroke-width: 15;
            stroke-linecap: round;
            stroke-linejoin: round;
            stroke-miterlimit: 10;
            stroke-dasharray: none;
            stroke-opacity: 1;
          "
          transform="translate(256.008 193.318)"
          fill="none"
          stroke="#FFF"
          stroke-width="15"
          stroke-linecap="round"
          stroke-linejoin="round"
          stroke-miterlimit="10"
          stroke-dasharray="none"
          stroke-opacity=""
          data-original="#000000"
          class=""
        ></path>
      </g>
    </g>
  </svg>